<svg viewBox="0 0 400 400" xmlns="http://www.w3.org/2000/svg" >
  <path
    d="M183.976 57.62c-2.554 2.755-4.139 8.826-10.846 41.539l-6.299 30.728-35.211 12.874c-19.367 7.08-46.27 16.676-59.786 21.324-26.672 9.171-26.648 9.16-26.315 12.032.351 3.019 6.001 5.254 59.207 23.417 25.001 8.535 42.915 15.152 44.023 16.26.185.185-.731 5.383-2.034 11.553-1.304 6.169-3.494 17.341-4.867 24.827l-2.496 13.611-14.592 19.281c-8.026 10.605-16.072 21.037-17.88 23.183-3.612 4.285-3.854 5.163-2.111 7.651 3.192 4.557 5.472 2.828 21.048-15.956 9.993-12.052 11.277-13.337 12.145-12.151 1.193 1.633 2.681-.499 2.681-3.842 0-1.467 5.269-8.335 20.596-26.845l20.596-24.875 4.167 2.361c7.44 4.214 21.841 13.328 45.836 29.009 39.013 25.496 39.309 25.308 26.702-16.96-5.666-18.998-11.391-36.649-17.79-54.845-3.488-9.918-6.101-18.425-5.806-18.903.295-.479 16.712-18.905 36.482-40.948 47.057-52.465 47.735-53.307 46.179-57.4-1.615-4.248-1.097-4.403-43.716 13.074-66.482 27.262-60.855 25.354-62.136 21.077-2.174-7.258-16.091-43.408-18.37-47.718-2.902-5.487-6.307-6.703-9.407-3.358m10.689 24.044c4.796 12.503 11.169 32.653 10.524 33.278-.79.765-26.798 10.775-27.119 10.438-.125-.131.409-3.13 1.187-6.665s2.778-14.764 4.445-24.953c1.667-10.189 3.423-20.397 3.901-22.683l.869-4.157 1.864 4.157c1.025 2.286 2.973 7.05 4.329 10.585m106.407 5.86c-3.868 5.401-68.939 74.3-70.236 74.366-.686.035-13.97-37.819-13.63-38.839.125-.376 8.214-3.912 17.976-7.858 15.302-6.185 41.813-17.887 61.226-27.025 3.119-1.468 5.78-2.682 5.912-2.697.132-.015-.43.909-1.248 2.053m-84.939 60.353l6.965 22.358-3.61 4.029c-1.985 2.216-9.7 10.444-17.145 18.285-7.445 7.841-16.092 17.189-19.216 20.773l-5.68 6.516-10.314-5.004-10.314-5.004 6.691-26.087c3.68-14.348 7.764-30.583 9.075-36.077l2.385-9.991 7.978-2.82a1399.215 1399.215 0 0016.674-6.049c4.783-1.775 8.887-3.241 9.121-3.257.234-.016 3.56 10.032 7.39 22.328m-52.021-5.911c.196 3.82-13.431 65.162-14.386 64.76-10.501-4.418-76.111-26.046-90.936-29.977-5.101-1.352-2.41-2.498 23.63-10.056 14.149-4.108 33.335-10.044 58.223-18.016 24.234-7.763 23.427-7.533 23.469-6.711m77.714 83.821c8.033 23.954 14.434 43.725 14.225 43.934-.536.536-11.294-6.064-24.449-14.998-18.413-12.505-37.437-25.142-40.925-27.184l-3.273-1.917 9.939-11.215c15.212-17.163 28.947-32.177 29.437-32.175.243.001 7.014 19.601 15.046 43.555m-77.265-2.814l6.906 3.492-11.294 13.611a31981.77 31981.77 0 00-13.172 15.879c-1.455 1.758-1.801 1.928-1.539.756.185-.832 2.304-9.766 4.708-19.855 5.034-21.132 3.322-19.48 14.391-13.883"
    fill-rule="evenodd"
  />
</svg>